<svg id="visual" viewBox="0 0 960 540" width="960" height="540" xmlns="http://www.w3.org/2000/svg" xmlns:xlink="http://www.w3.org/1999/xlink" version="1.1"><rect x="0" y="0" width="960" height="540" fill="#efebeb"></rect><g fill="none" stroke="#f9cfcf" stroke-width="4"><path d="M0 -58.5L13.1 -18.1L55.7 -18.1L21.3 6.9L34.4 47.3L0 22.4L-34.4 47.3L-21.3 6.9L-55.7 -18.1L-13.1 -18.1Z" transform="translate(243 312)"></path><path d="M0 -3.8L0.8 -1.2L3.6 -1.2L1.4 0.4L2.2 3.1L0 1.4L-2.2 3.1L-1.4 0.4L-3.6 -1.2L-0.8 -1.2Z" transform="translate(8 480)"></path><path d="M0 -19.8L4.4 -6.1L18.9 -6.1L7.2 2.3L11.7 16L0 7.6L-11.7 16L-7.2 2.3L-18.9 -6.1L-4.4 -6.1Z" transform="translate(619 221)"></path><path d="M0 -23.6L5.3 -7.3L22.4 -7.3L8.6 2.8L13.9 19.1L0 9L-13.9 19.1L-8.6 2.8L-22.4 -7.3L-5.3 -7.3Z" transform="translate(568 5)"></path><path d="M0 -39.6L8.9 -12.2L37.7 -12.2L14.4 4.7L23.3 32.1L0 15.1L-23.3 32.1L-14.4 4.7L-37.7 -12.2L-8.9 -12.2Z" transform="translate(356 409)"></path><path d="M0 -25.5L5.7 -7.9L24.2 -7.9L9.3 3L15 20.6L0 9.7L-15 20.6L-9.3 3L-24.2 -7.9L-5.7 -7.9Z" transform="translate(909 245)"></path><path d="M0 -9.4L2.1 -2.9L9 -2.9L3.4 1.1L5.5 7.6L0 3.6L-5.5 7.6L-3.4 1.1L-9 -2.9L-2.1 -2.9Z" transform="translate(152 154)"></path><path d="M0 -29.3L6.6 -9L27.8 -9L10.6 3.5L17.2 23.7L0 11.2L-17.2 23.7L-10.6 3.5L-27.8 -9L-6.6 -9Z" transform="translate(846 354)"></path><path d="M0 -15.1L3.4 -4.7L14.4 -4.7L5.5 1.8L8.9 12.2L0 5.8L-8.9 12.2L-5.5 1.8L-14.4 -4.7L-3.4 -4.7Z" transform="translate(585 432)"></path><path d="M0 -26.4L5.9 -8.2L25.1 -8.2L9.6 3.1L15.5 21.4L0 10.1L-15.5 21.4L-9.6 3.1L-25.1 -8.2L-5.9 -8.2Z" transform="translate(862 522)"></path><path d="M0 -37.8L8.5 -11.7L35.9 -11.7L13.7 4.5L22.2 30.5L0 14.4L-22.2 30.5L-13.7 4.5L-35.9 -11.7L-8.5 -11.7Z" transform="translate(374 60)"></path><path d="M0 -39.6L8.9 -12.2L37.7 -12.2L14.4 4.7L23.3 32.1L0 15.1L-23.3 32.1L-14.4 4.7L-37.7 -12.2L-8.9 -12.2Z" transform="translate(766 105)"></path><path d="M0 -14.2L3.2 -4.4L13.5 -4.4L5.1 1.7L8.3 11.5L0 5.4L-8.3 11.5L-5.1 1.7L-13.5 -4.4L-3.2 -4.4Z" transform="translate(474 241)"></path><path d="M0 -50L11.2 -15.5L47.6 -15.5L18.2 5.9L29.4 40.5L0 19.1L-29.4 40.5L-18.2 5.9L-47.6 -15.5L-11.2 -15.5Z" transform="translate(172 527)"></path><path d="M0 -23.6L5.3 -7.3L22.4 -7.3L8.6 2.8L13.9 19.1L0 9L-13.9 19.1L-8.6 2.8L-22.4 -7.3L-5.3 -7.3Z" transform="translate(236 49)"></path><path d="M0 -43.4L9.7 -13.4L41.3 -13.4L15.8 5.1L25.5 35.1L0 16.6L-25.5 35.1L-15.8 5.1L-41.3 -13.4L-9.7 -13.4Z" transform="translate(110 377)"></path><path d="M0 -11.3L2.5 -3.5L10.8 -3.5L4.1 1.3L6.7 9.2L0 4.3L-6.7 9.2L-4.1 1.3L-10.8 -3.5L-2.5 -3.5Z" transform="translate(8 201)"></path><path d="M0 -5.7L1.3 -1.7L5.4 -1.7L2.1 0.7L3.3 4.6L0 2.2L-3.3 4.6L-2.1 0.7L-5.4 -1.7L-1.3 -1.7Z" transform="translate(352 187)"></path><path d="M0 -7.6L1.7 -2.3L7.2 -2.3L2.7 0.9L4.4 6.1L0 2.9L-4.4 6.1L-2.7 0.9L-7.2 -2.3L-1.7 -2.3Z" transform="translate(738 282)"></path><path d="M0 -17L3.8 -5.2L16.2 -5.2L6.2 2L10 13.7L0 6.5L-10 13.7L-6.2 2L-16.2 -5.2L-3.8 -5.2Z" transform="translate(516 121)"></path><path d="M0 -35.9L8.1 -11.1L34.1 -11.1L13 4.2L21.1 29L0 13.7L-21.1 29L-13 4.2L-34.1 -11.1L-8.1 -11.1Z" transform="translate(54 45)"></path><path d="M0 -34L7.6 -10.5L32.3 -10.5L12.3 4L20 27.5L0 13L-20 27.5L-12.3 4L-32.3 -10.5L-7.6 -10.5Z" transform="translate(340 532)"></path><path d="M0 -15.1L3.4 -4.7L14.4 -4.7L5.5 1.8L8.9 12.2L0 5.8L-8.9 12.2L-5.5 1.8L-14.4 -4.7L-3.4 -4.7Z" transform="translate(738 493)"></path><path d="M0 -34L7.6 -10.5L32.3 -10.5L12.3 4L20 27.5L0 13L-20 27.5L-12.3 4L-32.3 -10.5L-7.6 -10.5Z" transform="translate(958 89)"></path><path d="M0 -17.9L4 -5.5L17.1 -5.5L6.5 2.1L10.5 14.5L0 6.8L-10.5 14.5L-6.5 2.1L-17.1 -5.5L-4 -5.5Z" transform="translate(502 528)"></path><path d="M0 -9.4L2.1 -2.9L9 -2.9L3.4 1.1L5.5 7.6L0 3.6L-5.5 7.6L-3.4 1.1L-9 -2.9L-2.1 -2.9Z" transform="translate(954 412)"></path></g></svg>