<svg id="visual" viewBox="0 0 900 600" width="900" height="600" xmlns="http://www.w3.org/2000/svg" xmlns:xlink="http://www.w3.org/1999/xlink" version="1.1"><rect x="0" y="0" width="900" height="600" fill="#e4eef6"></rect><g fill="#fbc7c2"><path d="M0 -111.4L25 -34.4L105.9 -34.4L40.5 13.1L65.5 90.1L0 42.5L-65.5 90.1L-40.5 13.1L-105.9 -34.4L-25 -34.4Z" transform="translate(38 395)"></path><path d="M0 -34.9L7.8 -10.8L33.2 -10.8L12.7 4.1L20.5 28.3L0 13.3L-20.5 28.3L-12.7 4.1L-33.2 -10.8L-7.8 -10.8Z" transform="translate(561 377)"></path><path d="M0 -103.8L23.3 -32.1L98.7 -32.1L37.7 12.3L61 84L0 39.7L-61 84L-37.7 12.3L-98.7 -32.1L-23.3 -32.1Z" transform="translate(574 135)"></path><path d="M0 -77.4L17.4 -23.9L73.6 -23.9L28.1 9.1L45.5 62.6L0 29.6L-45.5 62.6L-28.1 9.1L-73.6 -23.9L-17.4 -23.9Z" transform="translate(814 101)"></path><path d="M0 -43.4L9.7 -13.4L41.3 -13.4L15.8 5.1L25.5 35.1L0 16.6L-25.5 35.1L-15.8 5.1L-41.3 -13.4L-9.7 -13.4Z" transform="translate(319 461)"></path><path d="M0 -68.9L15.5 -21.3L65.5 -21.3L25 8.1L40.5 55.7L0 26.3L-40.5 55.7L-25 8.1L-65.5 -21.3L-15.5 -21.3Z" transform="translate(231 98)"></path><path d="M0 -34L7.6 -10.5L32.3 -10.5L12.3 4L20 27.5L0 13L-20 27.5L-12.3 4L-32.3 -10.5L-7.6 -10.5Z" transform="translate(871 420)"></path></g></svg>